<svg role="img" viewBox="0 0 80 80" xmlns="http://www.w3.org/2000/svg" id="Springsecurity--Streamline-Simple-Icons" height="80" width="80">
  <desc>
    Springsecurity Streamline Icon: https://streamlinehq.com
  </desc>
  <title>Spring Security</title>
  <path d="M68.63333333333334 6.886666666666667 39.97666666666667 0 11.366666666666667 6.886666666666667v22.040000000000003h15.190000000000001a12.68 12.68 0 0 0 0 3.18H11.366666666666667v10.353333333333333C11.366666666666667 66.22333333333334 39.980000000000004 80 39.980000000000004 80s28.60666666666667 -13.776666666666667 28.60666666666667 -37.526666666666664V32.11666666666667h-15.15a12.053333333333335 12.053333333333335 0 0 0 0 -3.18h15.193333333333333zM40 40.873333333333335h-0.02a10.363333333333333 10.363333333333333 0 1 1 0.02 0zm-0.02 -15.263333333333334a2.68 2.68 0 0 0 -1.2333333333333334 5.066666666666667v0.6933333333333334l0.7933333333333333 0.79v0.53l0.53 0.53v0.53l-0.46666666666666673 0.46666666666666673 0.5 0.8200000000000001v0.53l-0.5333333333333333 0.63 0.7433333333333334 0.74 0.8200000000000001 -0.8200000000000001V30.726666666666667a2.68 2.68 0 0 0 -1.1533333333333333 -5.116666666666666zm0 2.7866666666666666a0.9966666666666667 0.9966666666666667 0 1 1 0.9933333333333333 -0.9966666666666667 0.9966666666666667 0.9966666666666667 0 0 1 -0.9933333333333333 1z" fill="#3cc930" stroke-width="3.3333"></path>
</svg>